<svg id="Layer_1_copy_3" data-name="Layer 1 copy 3" xmlns="http://www.w3.org/2000/svg" viewBox="0 0 469.07 105.48"><defs><style>.cls-1{fill:#fff;}</style></defs><path class="cls-1" d="M152,353a.31.31,0,0,1-.31.31h-2.94a.31.31,0,0,1-.3-.31l.14-6.44L142,334a.2.2,0,0,1,.17-.28h3.3a.49.49,0,0,1,.45.28l4.4,9.54L154.8,334a.49.49,0,0,1,.45-.28h3a.19.19,0,0,1,.17.28l-6.55,12.57Z" transform="translate(-67.64 -257.92)"/><path class="cls-1" d="M161.72,353.34a.31.31,0,0,1-.31-.31l.17-9.58-.17-9.41a.31.31,0,0,1,.31-.3h2.91a.31.31,0,0,1,.31.3l-.17,9.41.17,9.58a.31.31,0,0,1-.31.31Z" transform="translate(-67.64 -257.92)"/><path class="cls-1" d="M178.24,353.73c-5.83,0-9.64-4.12-9.64-10.17,0-6.24,3.78-10.21,9.64-10.21s9.63,3.92,9.63,10.24C187.87,349.64,184.06,353.73,178.24,353.73Zm0-2.77c3.84,0,6.08-2.77,6.08-7.37s-2.21-7.47-6.1-7.47-6.08,2.8-6.08,7.47S174.43,351,178.26,351Z" transform="translate(-67.64 -257.92)"/><path class="cls-1" d="M200.52,350l-3.72-5.6-1.93,2.38L195,353a.31.31,0,0,1-.31.31h-2.91a.31.31,0,0,1-.31-.31l.17-9.61-.17-9.38a.31.31,0,0,1,.31-.3h2.91a.31.31,0,0,1,.31.3l-.11,8.66,6.47-8.71a.59.59,0,0,1,.5-.25h3.45a.13.13,0,0,1,.11.22l-6.33,7.7,7.76,11.42a.16.16,0,0,1-.14.26H203a.6.6,0,0,1-.47-.26Z" transform="translate(-67.64 -257.92)"/><path class="cls-1" d="M210,353.34a.31.31,0,0,1-.31-.31l.17-9.69-.17-9.3a.31.31,0,0,1,.31-.3h2.94a.31.31,0,0,1,.31.3l-.14,9.11.14,7.5h8.23a.31.31,0,0,1,.31.31V353a.31.31,0,0,1-.31.31Z" transform="translate(-67.64 -257.92)"/><path class="cls-1" d="M225.16,353.34a.31.31,0,0,1-.3-.31l.16-9.58-.16-9.41a.31.31,0,0,1,.3-.3h2.92a.31.31,0,0,1,.3.3l-.16,9.41.16,9.58a.31.31,0,0,1-.3.31Z" transform="translate(-67.64 -257.92)"/><path class="cls-1" d="M235.92,345.5V353a.31.31,0,0,1-.31.31H233a.31.31,0,0,1-.31-.31l.14-9.55-.14-9.44a.31.31,0,0,1,.31-.3h3.53a.62.62,0,0,1,.47.25l9,15,0-1.12-.08-5.66,0-8.15a.31.31,0,0,1,.31-.3h2.66a.31.31,0,0,1,.3.3l-.14,9.44.14,9.55a.31.31,0,0,1-.3.31h-3.67a.6.6,0,0,1-.48-.26l-8.9-14.78.05,1.68Z" transform="translate(-67.64 -257.92)"/><path class="cls-1" d="M262,353.73c-5.49,0-9.33-4.09-9.33-10.19s3.75-10.19,9.27-10.19c4.62,0,7.64,2.32,8.65,6.38a.25.25,0,0,1-.25.31h-2.94a.41.41,0,0,1-.39-.31c-.65-2.41-2.41-3.64-5-3.64-3.59,0-5.74,2.83-5.74,7.5s2.24,7.39,5.88,7.39c3.27,0,5.18-2,5.26-5.43H262a.31.31,0,0,1-.31-.3v-2a.31.31,0,0,1,.31-.31h8.65a.31.31,0,0,1,.31.31C271.06,350.2,267.78,353.73,262,353.73Z" transform="translate(-67.64 -257.92)"/><path class="cls-1" d="M291.66,353.73c-5.88,0-9.46-4-9.46-10.17s3.67-10.21,9.43-10.21c4.07,0,7.42,1.76,8.46,6.86a.25.25,0,0,1-.25.3h-2.75a.36.36,0,0,1-.36-.3,4.85,4.85,0,0,0-5.15-4.09c-3.75,0-5.82,2.85-5.82,7.44,0,4.76,2.15,7.4,5.82,7.4,2.94,0,4.76-1.6,5.24-4.54a.37.37,0,0,1,.36-.31H300a.25.25,0,0,1,.25.31C299.33,351.57,296.17,353.73,291.66,353.73Z" transform="translate(-67.64 -257.92)"/><path class="cls-1" d="M316.81,353.34a.31.31,0,0,1-.31-.31l.14-8.82h-9.58l.17,8.82a.31.31,0,0,1-.31.31h-3a.31.31,0,0,1-.3-.31l.16-9.44-.16-9.55a.31.31,0,0,1,.3-.3h3a.31.31,0,0,1,.31.3l-.14,7.48h9.52L316.5,334a.31.31,0,0,1,.31-.3h2.94a.31.31,0,0,1,.3.3l-.16,9.55.16,9.44a.31.31,0,0,1-.3.31Z" transform="translate(-67.64 -257.92)"/><path class="cls-1" d="M331.62,353.73c-5,0-7.65-2.77-7.62-7.73l0-5.68-.11-6.28a.31.31,0,0,1,.31-.3h3a.31.31,0,0,1,.31.3l-.11,6.19,0,5.74c0,3,1.23,4.9,4.17,4.9S336,349,336,346v-5.65L335.9,334a.31.31,0,0,1,.31-.3h2.69a.31.31,0,0,1,.31.3l-.09,6.28V346C339.12,351,336.63,353.73,331.62,353.73Z" transform="translate(-67.64 -257.92)"/><path class="cls-1" d="M360.32,353.73c-5.49,0-9.33-4.09-9.33-10.19s3.76-10.19,9.27-10.19c4.62,0,7.65,2.32,8.65,6.38a.25.25,0,0,1-.25.31h-2.94a.42.42,0,0,1-.39-.31c-.64-2.41-2.41-3.64-5-3.64-3.58,0-5.74,2.83-5.74,7.5s2.24,7.39,5.88,7.39c3.28,0,5.18-2,5.26-5.43h-5.32a.31.31,0,0,1-.3-.3v-2a.31.31,0,0,1,.3-.31H369a.31.31,0,0,1,.3.31C369.42,350.2,366.14,353.73,360.32,353.73Z" transform="translate(-67.64 -257.92)"/><path class="cls-1" d="M385.77,353.34a.41.41,0,0,1-.39-.28l-1.71-5.1h-7.73l-1.65,5.1a.42.42,0,0,1-.39.28H371a.2.2,0,0,1-.19-.28l6.69-19a.46.46,0,0,1,.42-.28h4a.47.47,0,0,1,.42.28l6.58,19a.2.2,0,0,1-.2.28Zm-3-8.24-3-9-2.88,9Z" transform="translate(-67.64 -257.92)"/><path class="cls-1" d="M401.17,349.42l-2.41-3.67h-3.55l.11,7.28a.31.31,0,0,1-.31.31h-2.94a.31.31,0,0,1-.31-.31l.14-9.61-.14-9.38a.31.31,0,0,1,.31-.3h7.36c4.71,0,7.48,2,7.48,6a5.53,5.53,0,0,1-4.54,5.68l4.93,7.67a.16.16,0,0,1-.14.26H403.8a.6.6,0,0,1-.47-.26Zm-1.51-13.05h-4.37l-.11,6.72h4.53c2.22,0,3.87-.95,3.87-3.3S402.12,336.37,399.66,336.37Z" transform="translate(-67.64 -257.92)"/><path class="cls-1" d="M419.2,353.73c-5.88,0-9.46-4-9.46-10.17s3.67-10.21,9.43-10.21c4.06,0,7.42,1.76,8.46,6.86a.25.25,0,0,1-.25.3h-2.75a.36.36,0,0,1-.36-.3,4.86,4.86,0,0,0-5.15-4.09c-3.75,0-5.83,2.85-5.83,7.44,0,4.76,2.16,7.4,5.83,7.4,2.94,0,4.76-1.6,5.23-4.54a.39.39,0,0,1,.37-.31h2.8a.25.25,0,0,1,.25.31C426.87,351.57,423.71,353.73,419.2,353.73Z" transform="translate(-67.64 -257.92)"/><path class="cls-1" d="M431.63,353.34a.31.31,0,0,1-.3-.31l.16-9.58-.16-9.41a.31.31,0,0,1,.3-.3h2.92a.31.31,0,0,1,.3.3l-.16,9.41.16,9.58a.31.31,0,0,1-.3.31Z" transform="translate(-67.64 -257.92)"/><path class="cls-1" d="M452.8,353.34a.42.42,0,0,1-.39-.28L450.7,348H443l-1.65,5.1a.41.41,0,0,1-.39.28h-2.88a.21.21,0,0,1-.2-.28l6.69-19a.46.46,0,0,1,.42-.28h4a.46.46,0,0,1,.42.28l6.58,19a.2.2,0,0,1-.2.28Zm-3-8.24-3-9-2.88,9Z" transform="translate(-67.64 -257.92)"/><path class="cls-1" d="M99.92,330c-7.44,0-11.4-5.88-11.28-18.12s4.2-17.76,11.64-17.76S111.8,300,111.8,312.52a39.57,39.57,0,0,1-.36,5.48h22a43.18,43.18,0,0,0,.44-6.08c0-18-9.48-31.92-26.88-31.92-7.8,0-13.92,3-18.24,8.16l.24-5.88a1,1,0,0,0-1.08-1.08H68.72a1.08,1.08,0,0,0-1.08,1.08l.36,36.6-.36,43.44a1.08,1.08,0,0,0,1.08,1.08h19.8a1.08,1.08,0,0,0,1.08-1.08l-.24-25A20.88,20.88,0,0,0,102,343.88v-14A13.82,13.82,0,0,1,99.92,330Z" transform="translate(-67.64 -257.92)"/><path class="cls-1" d="M159.08,312.4c0-13.08,3.36-18.48,10.92-18.72,7.2,0,10.8,5.52,10.8,18.6a54.31,54.31,0,0,1-.28,5.72h21.93a44.27,44.27,0,0,0,.43-6.2c0-19.8-11.88-32.28-32.76-32.28s-33,13-33,32.76a44,44,0,0,0,.37,5.72h21.87A52.22,52.22,0,0,1,159.08,312.4Z" transform="translate(-67.64 -257.92)"/><path class="cls-1" d="M249.56,296.8a7.38,7.38,0,0,1,1.56.12,1,1,0,0,0,1.08-1.08V282.16a1.17,1.17,0,0,0-1-1.2,16.26,16.26,0,0,0-2.4-.24c-8.52,0-16,3.48-20.88,10.44l.48-8.88a1,1,0,0,0-1.08-1.08h-19.2a1.08,1.08,0,0,0-1.08,1.08l.48,30-.09,5.72h21.09C228.31,304.07,236.88,296.8,249.56,296.8Z" transform="translate(-67.64 -257.92)"/><path class="cls-1" d="M284.12,296.2h13.56a1.08,1.08,0,0,0,1.08-1.08V282.28a1.08,1.08,0,0,0-1.08-1.08H284.12l.12-14.4a1.08,1.08,0,0,0-1.08-1.08H263.72a1.08,1.08,0,0,0-1.08,1.08l.12,14.4h-7a1.08,1.08,0,0,0-1.08,1.08v12.84a1.08,1.08,0,0,0,1.08,1.08h7.08l-.2,21.8h21.54Z" transform="translate(-67.64 -257.92)"/><path class="cls-1" d="M331.88,316V296.2h13.8a1.08,1.08,0,0,0,1.08-1.08V282.28a1.08,1.08,0,0,0-1.08-1.08h-13.8v-1.32c0-5.28,2.64-6.6,7-6.6a34.43,34.43,0,0,1,6.6.6.82.82,0,0,0,1.2-.84V260.2a1.05,1.05,0,0,0-1-1.08,74.21,74.21,0,0,0-12.24-1.2c-12.12,0-22.68,5.64-22.68,20.52v2.76H302.6a1.08,1.08,0,0,0-1.08,1.08v12.84a1.08,1.08,0,0,0,1.08,1.08h8.16V316l-.05,2h21.21Z" transform="translate(-67.64 -257.92)"/><path class="cls-1" d="M368.6,312.4c0-13.08,3.36-18.48,10.92-18.72,7.19,0,10.8,5.52,10.8,18.6A54.31,54.31,0,0,1,390,318H412a44.3,44.3,0,0,0,.42-6.2c0-19.8-11.88-32.28-32.75-32.28s-33,13-33,32.76A44,44,0,0,0,347,318h21.88A52.22,52.22,0,0,1,368.6,312.4Z" transform="translate(-67.64 -257.92)"/><path class="cls-1" d="M437.84,301.24l.48-41.16a1.08,1.08,0,0,0-1.08-1.08H418.16a1.08,1.08,0,0,0-1.08,1.08l.48,41.16-.2,16.76H438Z" transform="translate(-67.64 -257.92)"/><rect class="cls-1" x="376.68" y="1.08" width="21.96" height="17.4" rx="1.08"/><path class="cls-1" d="M465.91,312.64l.36-30.36a1.08,1.08,0,0,0-1.08-1.08H445.52a1.08,1.08,0,0,0-1.08,1.08l.35,30.36-.06,5.36H466Z" transform="translate(-67.64 -257.92)"/><path class="cls-1" d="M504,279.52c-20.87,0-33,13-33,32.76a44,44,0,0,0,.36,5.72H493.2a52,52,0,0,1-.29-5.6c0-13.08,3.36-18.48,10.92-18.72,7.2,0,10.8,5.52,10.8,18.6,0,13.32-3.48,18.12-10.68,18.12A9.52,9.52,0,0,1,497,328v16.21a45.4,45.4,0,0,0,6.95.52c20.88,0,32.76-13.08,32.76-32.88S524.83,279.52,504,279.52Z" transform="translate(-67.64 -257.92)"/></svg>